<?xml version="1.0" encoding="UTF-8" standalone="no"?>
<!DOCTYPE svg PUBLIC "-//W3C//DTD SVG 1.1//EN" "http://www.w3.org/Graphics/SVG/1.1/DTD/svg11.dtd">
<svg width="100%" height="100%" viewBox="0 0 2018 639" version="1.1" xmlns="http://www.w3.org/2000/svg" xmlns:xlink="http://www.w3.org/1999/xlink" xml:space="preserve" xmlns:serif="http://www.serif.com/" style="fill-rule:evenodd;clip-rule:evenodd;stroke-linejoin:round;stroke-miterlimit:2;">
    <g transform="matrix(1,0,0,1,-538,-13209)">
        <g id="Picture-1.svg" serif:id="Picture 1.svg" transform="matrix(3.34106,0,0,3.34106,1547,13528.1)">
            <g transform="matrix(1,0,0,1,-302,-95.5)">
                <g transform="matrix(1,0,0,1,-92,-4233)">
                    <g>
                        <g>
                            <g>
                                <g transform="matrix(1.00224,0,0,1,-110.286,4001.98)">
                                    <path d="M357.144,250.915C357.249,251.125 357.249,251.23 357.039,251.335C356.724,251.546 355.148,253.857 354.938,254.172C354.833,254.383 354.833,254.067 354.833,253.857C355.358,252.281 354.938,250.6 353.677,249.444C352.416,248.498 350.63,248.709 349.684,249.969L349.684,250.075C348.738,251.546 348.633,252.912 349.684,256.694C350.735,260.687 350.315,262.158 348.844,263.839C346.847,265.836 343.8,265.941 341.593,264.365C338.756,262.368 338.651,261.948 338.231,261.738C337.916,261.633 337.916,261.317 338.231,260.897C338.756,260.267 340.438,257.955 340.753,257.535C340.963,257.22 340.963,257.535 340.753,258.06C339.912,259.741 340.333,261.843 341.804,263.104C343.064,264.259 344.956,264.154 346.112,262.999C346.217,262.893 346.217,262.893 346.322,262.788C347.162,261.738 347.688,260.792 346.427,256.169C345.166,251.335 346.007,249.759 347.898,248.288C349.789,246.712 352.521,246.817 354.307,248.288C355.043,248.814 355.778,249.444 356.409,250.18C356.619,250.39 356.724,250.705 356.934,250.81C357.144,250.915 357.144,250.81 357.144,250.915Z" style="fill-rule:nonzero;"/>
                                </g>
                                <g transform="matrix(1.00224,0,0,1,-110.286,4001.98)">
                                    <path d="M205.208,305.658C205.313,305.448 205.418,305.553 205.734,305.658C206.679,305.974 207.73,306.079 208.781,306.184C209.306,306.184 208.466,306.604 208.15,306.604C207.415,306.709 205.944,307.129 205.313,309.546C204.893,310.912 205.629,312.383 206.994,312.803C207.1,312.803 207.1,312.803 207.205,312.908C209.306,313.329 210.462,312.488 213.509,310.071C215.4,308.075 218.132,307.129 220.864,307.76C223.386,308.705 224.857,311.332 224.227,313.959C223.911,315.325 223.386,316.691 222.65,317.847C222.545,318.162 222.335,318.372 221.81,318.162C221.179,317.952 218.658,317.637 218.132,317.532C217.292,317.427 217.607,317.111 218.132,317.111C219.393,316.901 222.23,316.586 222.861,313.854C223.281,312.383 222.335,310.912 220.969,310.597L220.759,310.597C219.498,310.282 218.027,310.282 214.455,313.329C210.567,316.586 208.886,316.586 206.784,315.64C204.578,314.695 203.422,312.173 204.052,309.861C204.263,308.705 204.683,307.55 205.208,306.394L205.208,305.658Z" style="fill-rule:nonzero;"/>
                                </g>
                                <g transform="matrix(1.00224,0,0,1,-110.286,4001.98)">
                                    <path d="M325.412,419.978C325.097,419.978 325.202,419.768 325.202,419.558C325.202,419.558 324.466,417.246 324.466,417.036C324.361,416.826 324.572,416.826 324.782,416.931C325.832,417.982 327.303,418.507 328.774,418.192C330.351,417.772 331.296,416.301 330.981,414.725C330.456,413.043 328.774,412.203 325.202,410.627C321.945,409.156 320.894,407.579 320.579,405.793C320.264,402.956 322.05,400.329 324.782,399.489C327.514,398.648 328.144,398.753 328.669,398.438C329.09,398.228 329.195,399.069 329.195,399.279C329.405,400.014 330.14,402.221 330.351,402.641C330.561,403.061 330.246,403.166 330.035,402.746C329.09,401.065 327.198,400.224 325.307,400.645C322.89,401.485 322.575,403.166 322.89,404.322C323.311,405.583 323.521,406.634 328.039,408.525C332.452,410.417 333.398,412.308 333.398,414.409C333.293,416.826 331.401,418.927 328.985,419.348C328.249,419.558 327.514,419.663 326.778,419.663C326.463,419.663 326.253,419.768 326.043,419.768C325.832,419.768 325.622,419.978 325.412,419.978Z" style="fill-rule:nonzero;"/>
                                </g>
                                <g transform="matrix(1.00224,0,0,1,-110.286,4001.98)">
                                    <path d="M359.351,255.959C359.981,255.643 360.612,255.328 361.137,254.908C361.347,254.698 361.768,254.908 362.083,255.223C362.293,255.433 366.286,259.321 367.021,260.162C368.072,261.317 371.644,264.47 372.065,264.995C372.485,265.415 372.905,265.625 372.485,265.941C372.065,266.256 371.014,266.781 370.804,266.991C370.489,267.096 370.594,266.991 370.594,266.676C370.594,266.361 370.384,265.836 369.333,264.785C368.282,263.734 367.231,262.578 367.021,262.368C366.811,262.158 366.706,262.158 366.601,262.368C366.286,262.578 362.398,266.571 361.557,267.517C359.351,269.513 357.354,271.72 355.568,274.136C355.463,274.977 355.673,275.082 355.778,275.292C355.883,275.502 355.988,276.133 355.778,275.818C355.568,275.502 353.887,273.821 353.572,273.401C353.257,272.981 351.575,271.72 351.365,271.51C351.155,271.299 351.26,271.194 351.681,271.299C352.206,271.615 352.836,271.615 353.362,271.299C355.568,269.513 357.565,267.622 359.456,265.625C360.086,264.995 364.289,260.582 364.394,260.477C364.604,260.267 364.604,260.162 364.394,259.846C363.344,258.691 362.188,257.64 361.032,256.694C360.717,256.379 360.296,256.274 359.876,256.274C359.456,256.169 359.036,256.169 359.351,255.959Z" style="fill-rule:nonzero;"/>
                                </g>
                                <g transform="matrix(1.00224,0,0,1,-110.286,4001.98)">
                                    <path d="M214.56,287.586C214.139,287.165 213.299,286.43 212.774,286.01C212.563,285.799 212.668,285.589 212.879,285.274C212.984,285.064 215.821,279.915 216.451,278.97C217.292,277.709 219.813,273.506 220.129,272.875C220.444,272.35 220.654,271.93 220.969,272.14C221.39,272.56 221.81,273.086 222.23,273.611C222.44,273.926 222.335,273.716 222.02,273.716C221.705,273.716 221.284,274.346 220.444,275.607C219.919,276.448 219.393,277.394 218.973,278.339C218.868,278.655 219.078,278.76 219.183,278.865C219.498,279.075 224.121,281.912 225.172,282.542C227.694,284.118 230.321,285.484 233.053,286.535C233.893,286.535 233.893,286.325 233.998,286.22C234.208,286.01 234.734,286.01 234.524,286.22C233.893,287.06 233.368,287.796 232.843,288.742C232.422,289.477 231.582,291.053 231.477,291.368C231.372,291.684 231.372,291.158 231.372,290.843C231.372,290.423 231.687,290.002 231.056,289.477C229.9,288.531 224.647,285.484 223.911,285.064C223.176,284.644 218.027,281.702 217.607,281.597C217.292,281.491 217.082,281.176 216.871,281.597C215.926,283.068 215.19,284.539 214.56,286.115C214.455,286.43 214.455,286.85 214.56,287.165C214.665,287.586 214.77,287.691 214.56,287.586Z" style="fill-rule:nonzero;"/>
                                </g>
                                <g transform="matrix(1.00224,0,0,1,-110.286,4001.98)">
                                    <path d="M238.306,256.484C238.096,255.749 237.676,255.118 237.361,254.488C237.151,254.172 237.151,254.172 237.676,253.752C237.886,253.647 242.509,250.18 243.455,249.444C244.716,248.498 248.919,245.661 249.444,245.241C249.969,244.821 250.495,244.611 250.705,245.136C250.915,245.556 251.441,246.817 251.546,247.133C251.651,247.553 251.441,247.238 251.125,246.922C250.915,246.712 250.39,246.712 249.234,247.553C248.078,248.393 246.397,249.444 246.187,249.654C245.977,249.864 245.977,249.864 246.082,250.075C246.292,250.6 249.444,255.118 250.285,256.274C251.966,258.796 253.962,261.212 256.064,263.524C256.379,263.629 256.694,263.734 257.114,263.524C257.325,263.524 257.64,263.524 257.22,263.839C256.799,264.154 255.538,264.89 255.118,265.205C254.698,265.52 253.437,266.466 253.017,266.781C252.491,267.202 252.701,266.781 252.912,266.466C253.122,266.151 253.332,265.941 253.017,265.205C251.651,262.788 250.18,260.477 248.604,258.27C248.078,257.535 244.085,252.176 243.77,251.861C243.665,251.651 243.56,251.651 243.245,251.861C242.93,252.071 239.777,254.488 239.252,254.908C238.937,255.223 238.727,255.328 238.622,255.749C238.306,256.169 238.306,256.799 238.306,256.484Z" style="fill-rule:nonzero;"/>
                                </g>
                                <g transform="matrix(1.00224,0,0,1,-110.286,4001.98)">
                                    <path d="M380.05,274.662C384.043,278.655 383.938,285.169 379.945,289.057C379.735,289.267 379.525,289.477 379.315,289.582C375.217,293.05 369.123,292.839 365.235,289.057C361.347,284.959 361.557,278.549 365.655,274.662C369.543,270.669 375.847,270.564 379.84,274.452C379.945,274.452 380.05,274.557 380.05,274.662ZM368.177,277.078C364.71,279.6 363.974,284.434 366.496,287.901C366.496,288.006 366.601,288.006 366.601,288.111C370.068,290.738 374.902,290.108 377.634,286.745C381.101,284.013 381.837,278.97 379.105,275.502C379,275.397 378.895,275.187 378.789,275.082C376.793,273.401 372.485,272.875 368.177,277.078Z" style="fill-rule:nonzero;"/>
                                </g>
                                <g transform="matrix(1.00224,0,0,1,-110.286,4001.98)">
                                    <path d="M385.829,371.014C384.043,376.268 378.264,379 373.01,377.213C372.695,377.108 372.275,377.003 371.96,376.793C367.231,374.586 364.815,369.228 366.391,364.289C368.282,359.036 374.061,356.409 379.21,358.195C384.568,359.981 387.51,365.655 385.829,371.014ZM378.369,361.242C374.692,359.246 370.068,360.612 368.072,364.184C367.967,364.289 367.967,364.499 367.862,364.604C366.916,367.231 367.967,371.224 373.851,373.431C379.525,375.532 383.833,373.431 384.779,369.648C385.199,368.282 385.304,363.764 378.369,361.242Z" style="fill-rule:nonzero;"/>
                                </g>
                                <g transform="matrix(1.00224,0,0,1,-110.286,4001.98)">
                                    <path d="M378.474,312.488C377.634,312.488 376.793,312.383 375.847,312.173C375.217,312.068 375.217,312.068 375.007,311.753C373.326,309.546 372.38,306.814 372.38,304.082C371.96,299.354 375.007,295.046 379.525,293.575C383.518,292.524 387.826,293.89 390.453,297.252C391.818,299.249 392.659,301.56 392.764,304.082C392.869,305.553 392.974,306.394 393.079,306.814C393.184,307.55 393.184,307.76 393.395,307.97C393.605,308.18 393.29,308.39 392.974,308.39C392.659,308.39 391.503,308.6 390.978,308.705C390.558,308.811 389.717,309.021 389.507,309.126C388.876,309.231 388.876,309.126 389.402,308.705C390.453,308.18 391.188,307.129 391.398,305.974C391.924,303.242 391.188,300.51 389.402,298.408C386.985,295.887 383.203,295.256 380.05,296.832C376.583,298.093 374.271,301.455 374.166,305.133C373.956,308.075 375.742,310.807 378.474,311.858C378.895,312.278 379.315,312.488 378.474,312.488Z" style="fill-rule:nonzero;"/>
                                </g>
                                <g transform="matrix(1.00224,0,0,1,-110.286,4001.98)">
                                    <path d="M394.655,314.905C394.655,315.64 394.971,319.108 395.181,319.738C395.391,320.579 394.971,320.159 394.971,319.843C394.866,319.423 394.445,319.108 394.025,319.003C391.293,319.003 388.456,319.213 385.724,319.633C388.036,321.735 390.453,323.626 392.974,325.307C393.5,325.832 394.13,326.148 394.866,326.358C395.076,326.358 394.971,326.463 395.076,326.253C395.181,325.938 395.496,324.887 395.496,326.463L395.496,328.249C395.496,328.564 395.601,329.3 395.601,329.51C395.706,330.351 395.601,330.14 394.971,329.405C393.92,328.249 392.659,327.303 391.398,326.358C390.768,325.832 386.355,322.575 386.355,322.575C386.355,322.575 380.155,328.459 379,329.825C378.054,330.771 377.318,331.822 376.583,332.872C376.373,333.293 376.163,333.503 376.268,333.082C376.268,332.767 376.478,331.086 376.583,330.351C376.583,329.72 376.688,327.724 376.688,327.514C376.688,327.093 376.898,327.409 377.108,327.514C378.579,326.568 379.945,325.412 381.101,324.046C382.572,322.575 384.989,319.948 385.199,319.738C383.203,319.843 381.101,320.159 379.105,320.474C378.369,320.579 377.634,320.789 377.003,321.209C376.793,321.419 376.583,321.735 376.583,322.05C376.583,322.26 376.268,322.47 376.268,322.05C376.268,321.735 376.163,319.948 376.163,319.318C376.163,318.687 375.952,317.216 375.847,317.006C375.742,316.796 376.057,316.586 376.163,316.901C376.268,317.216 376.478,317.427 376.688,317.427C377.423,317.742 378.264,317.742 385.199,316.901C387.931,316.691 390.663,316.376 393.29,315.745C394.025,315.535 394.445,315.325 394.55,314.695C394.34,314.484 394.655,313.749 394.655,314.905Z" style="fill-rule:nonzero;"/>
                                </g>
                                <g transform="matrix(1.00224,0,0,1,-110.286,4001.98)">
                                    <path d="M394.761,338.441C394.655,339.072 394.025,342.434 394.025,343.17C394.025,343.905 393.71,343.905 393.605,343.38C393.605,342.959 393.29,342.644 392.974,342.434C391.924,342.014 390.768,341.699 389.612,341.593C387.195,341.173 385.724,340.963 385.724,340.963C385.724,340.963 384.989,344.115 384.568,346.007C384.043,348.423 383.518,351.575 383.518,351.575L388.141,352.836C389.402,353.152 391.293,353.992 391.818,352.941C392.239,352.206 392.449,352.416 392.134,353.152C392.029,353.467 391.188,356.724 391.083,357.354C390.873,358.51 390.663,357.775 390.768,357.46C390.873,357.144 391.083,356.724 390.032,356.304C388.982,355.883 385.409,354.728 382.257,353.782C379.63,352.836 376.898,352.206 374.061,351.891C373.326,351.996 373.115,352.101 373.01,352.311C372.8,352.626 372.38,352.731 372.695,352.206C373.221,350.84 373.641,349.369 373.956,347.898C374.166,346.532 374.376,347.478 374.376,347.793C374.376,348.213 374.586,348.738 375.007,348.844C377.318,349.789 379.84,350.63 382.257,351.155C382.257,351.155 382.992,348.213 383.518,346.007C384.043,343.38 384.463,340.753 384.463,340.753C384.463,340.753 382.992,340.543 381.942,340.333C380.155,340.017 378.369,339.807 376.583,339.807C376.163,339.912 375.952,340.227 375.742,340.543C375.637,340.753 375.217,341.278 375.427,340.333C375.742,338.862 375.952,337.496 376.057,336.025C376.163,334.869 376.478,335.394 376.478,335.709C376.478,336.025 376.688,336.34 377.003,336.55C379.63,337.391 382.362,337.811 385.199,338.126C388.141,338.651 390.978,339.072 393.92,339.072C394.55,338.862 394.55,338.546 394.655,338.336C394.55,338.021 394.971,337.601 394.761,338.441Z" style="fill-rule:nonzero;"/>
                                </g>
                                <g transform="matrix(1.00224,0,0,1,-110.286,4001.98)">
                                    <path d="M375.847,386.145C374.692,387.3 373.641,388.561 372.695,389.822C372.17,390.453 372.275,389.927 372.38,389.717C372.59,389.192 372.485,389.087 372.275,388.666C370.489,386.775 368.597,384.989 366.496,383.413C364.499,381.521 362.293,379.84 359.876,378.474C359.456,378.474 359.141,378.474 358.3,379.21C357.144,380.26 356.094,381.521 355.148,382.887C354.833,383.518 354.728,384.148 354.728,384.884C354.728,385.304 354.623,385.304 354.412,384.884C354.097,384.043 353.887,383.203 353.782,382.257C353.782,382.047 353.887,381.731 354.097,381.626C354.623,381.101 358.615,376.583 359.141,375.847C359.771,375.112 360.402,374.376 361.032,373.536C361.452,372.905 361.557,373.326 361.452,373.641C361.242,374.061 361.137,374.481 361.242,375.007C363.133,377.213 365.235,379.105 367.652,380.786C369.753,382.887 372.17,384.568 374.692,386.039C375.007,386.039 375.427,385.934 375.637,385.724C375.952,385.619 376.478,385.724 375.847,386.145Z" style="fill-rule:nonzero;"/>
                                </g>
                                <g transform="matrix(1.00224,0,0,1,-110.286,4001.98)">
                                    <path d="M351.26,385.934C351.47,386.46 353.467,390.032 355.673,393.605C357.88,397.282 360.296,401.17 360.612,401.8C361.242,402.956 361.242,403.166 360.191,402.641C358.615,401.8 351.996,398.543 350.945,398.018C349.894,397.492 344.535,394.761 344.535,394.761C344.535,394.761 345.691,403.482 345.796,404.007C345.901,404.532 346.847,411.782 346.847,412.098C346.847,412.413 346.847,413.043 346.217,412.413C345.586,411.782 335.289,398.648 334.764,398.018C334.343,397.492 333.818,397.177 333.293,397.177L332.452,397.177C332.242,397.282 332.032,397.072 332.347,396.862C332.767,396.652 336.445,394.761 336.865,394.55C337.075,394.445 337.391,394.55 337.075,394.761C336.655,395.076 336.55,395.286 336.655,395.706C336.865,396.757 344.325,406.003 344.325,406.003C344.325,406.003 343.064,397.703 342.854,396.652C342.644,395.601 341.909,390.663 341.909,390.663C341.909,390.663 341.909,390.347 342.224,390.558C342.539,390.768 349.789,394.445 350.63,394.866C351.47,395.286 356.094,397.598 356.094,397.598C356.094,397.598 351.996,390.978 350.315,388.246C350.104,387.826 349.684,387.405 349.264,387.195C348.738,387.09 348.528,387.3 348.213,387.51C348.003,387.616 347.793,387.405 348.318,387.09C348.949,386.67 349.474,386.355 349.999,385.829C350.42,385.514 351.47,384.463 351.681,384.358C351.891,384.253 352.101,384.358 351.891,384.568C351.155,384.674 350.945,385.409 351.26,385.934Z" style="fill-rule:nonzero;"/>
                                </g>
                                <g transform="matrix(1.00224,0,0,1,-110.286,4001.98)">
                                    <path d="M306.184,411.257C306.184,411.572 306.289,415.67 306.289,416.09C306.289,416.301 306.079,416.301 305.974,415.775C305.868,415.355 305.553,415.04 305.133,414.935C303.662,414.725 302.086,414.725 300.615,414.83C300.51,416.616 300.615,418.297 301.035,420.083C301.455,420.609 301.56,420.504 301.771,420.609C301.981,420.609 302.506,420.924 302.191,420.924C301.56,420.819 298.093,420.819 297.252,420.924C296.727,421.029 296.937,420.714 297.463,420.609C297.988,420.504 298.198,420.188 298.408,419.663C298.513,418.087 298.618,416.511 298.513,414.935C296.937,414.935 295.256,414.935 293.68,415.145C293.365,415.355 293.155,415.67 293.155,416.09C293.155,416.406 292.734,416.721 292.839,416.301C292.944,414.83 292.944,413.359 292.839,411.993C292.734,411.467 292.839,411.467 293.05,411.888C293.26,412.308 293.155,412.518 293.68,412.728C295.256,412.833 296.832,412.938 298.513,412.938C298.513,412.938 298.513,408.945 298.408,408.315C298.303,407.79 297.883,407.369 297.358,407.264C297.042,407.264 296.832,406.949 297.147,407.054C298.724,407.159 300.3,407.159 301.876,407.054C302.401,407.054 302.086,407.264 301.666,407.369C301.14,407.474 300.72,407.895 300.615,408.315C300.51,408.945 300.51,412.833 300.51,412.833C300.51,412.833 304.187,412.833 304.818,412.728C305.343,412.623 305.763,412.203 305.763,411.782C305.974,411.257 306.289,410.837 306.184,411.257Z" style="fill-rule:nonzero;"/>
                                </g>
                                <g transform="matrix(1.00224,0,0,1,-110.286,4001.98)">
                                    <path d="M272.77,420.714C271.089,419.873 269.303,419.243 267.412,418.822C266.781,418.717 267.412,418.612 267.727,418.612C268.252,418.612 268.673,418.717 268.988,418.402C271.089,414.514 272.665,410.417 274.031,406.108C274.977,403.587 273.716,400.75 271.089,399.699C270.879,399.594 270.669,399.594 270.564,399.489C266.361,398.018 264.68,400.329 262.368,404.532C260.687,407.579 259.216,410.627 258.06,413.884C258.06,414.199 258.165,414.514 258.48,414.725C258.901,415.04 259.111,415.565 258.691,415.25C257.22,414.304 255.643,413.569 254.067,413.043C253.752,412.938 253.962,412.728 254.488,412.833C254.908,412.938 255.013,412.833 255.433,412.623C257.64,409.156 259.636,405.478 261.528,401.8C262.578,399.804 264.575,398.333 266.781,397.808C270.249,397.492 273.611,398.964 275.712,401.695C276.973,403.692 277.289,406.108 276.553,408.315C276.133,409.996 272.35,418.507 272.35,419.663C272.35,419.978 272.455,420.293 272.77,420.504C272.981,420.504 273.191,420.924 272.77,420.714Z" style="fill-rule:nonzero;"/>
                                </g>
                                <g transform="matrix(1.00224,0,0,1,-110.286,4001.98)">
                                    <path d="M246.292,409.366C246.292,409.366 245.451,400.855 245.241,397.808C244.926,394.34 244.085,387.721 244.085,387.721C244.085,387.721 237.361,394.971 236.52,395.916C235.68,396.862 234.839,397.703 234.839,398.228C234.839,398.543 234.944,398.858 235.259,399.174C235.364,399.384 235.469,399.909 235.364,399.699C234.839,399.069 234.208,398.438 233.473,397.808C232.948,397.282 232.317,396.757 231.687,396.337C231.266,396.021 231.792,396.126 232.002,396.232C232.212,396.442 232.632,396.547 232.948,396.442C235.574,394.235 237.991,391.713 240.198,389.192C241.984,387.3 245.977,382.887 246.397,382.362C246.712,381.942 246.712,382.152 246.712,382.572C246.712,383.097 247.448,391.924 247.658,392.974C247.763,393.92 248.288,399.909 248.288,400.54C248.288,401.17 248.498,403.482 248.498,403.482C248.498,403.482 251.546,399.069 252.596,397.387C253.857,395.811 254.908,394.025 255.749,392.134C255.749,391.608 255.538,391.083 255.013,390.873C254.908,390.768 254.803,390.347 255.118,390.663C256.379,391.713 257.85,392.764 259.321,393.5C259.951,393.815 259.006,393.605 258.796,393.5C258.375,393.395 257.955,393.395 257.535,393.5C255.538,395.811 253.752,398.228 252.176,400.855C251.335,402.011 249.024,405.268 248.498,406.214C247.973,407.054 246.712,408.945 246.397,409.366C246.502,409.891 246.397,409.891 246.292,409.366Z" style="fill-rule:nonzero;"/>
                                </g>
                                <g transform="matrix(1.00224,0,0,1,-110.286,4001.98)">
                                    <path d="M237.676,373.641C238.096,374.481 238.622,375.217 239.252,375.952C239.882,376.688 240.513,377.423 241.143,378.054C241.564,378.369 241.038,378.264 240.618,378.054C240.303,377.844 239.882,377.634 238.832,378.264C237.571,378.895 226.538,388.246 226.118,388.771C225.592,389.402 225.592,389.717 225.908,390.242C226.118,390.663 225.908,390.978 225.803,390.663C224.857,389.192 223.701,387.826 222.545,386.565C222.02,386.25 222.545,386.25 222.861,386.46C223.176,386.67 223.281,386.67 223.701,386.46C228.535,382.992 233.263,379.21 237.571,375.112C237.676,374.797 237.676,374.376 237.466,374.061C237.466,373.641 237.361,373.221 237.676,373.641Z" style="fill-rule:nonzero;"/>
                                </g>
                                <g transform="matrix(1.00224,0,0,1,-110.286,4001.98)">
                                    <path d="M228.114,298.618C227.274,300.3 226.538,302.191 226.013,303.977C225.908,304.503 225.698,303.977 225.698,303.557C225.803,302.926 225.908,302.611 224.857,301.981C219.813,299.669 214.56,297.673 209.201,296.097C208.781,296.097 208.36,296.307 208.15,296.622C207.94,296.937 207.52,297.042 207.73,296.622C208.571,294.941 209.306,293.05 209.831,291.263C209.937,290.633 210.147,291.263 210.042,291.579C209.937,291.999 209.937,292.419 210.252,292.629C215.505,295.256 220.969,297.358 226.643,298.934C227.379,298.829 227.274,298.618 227.484,298.408C227.904,298.408 228.429,298.198 228.114,298.618Z" style="fill-rule:nonzero;"/>
                                </g>
                                <g transform="matrix(1.00224,0,0,1,-110.286,4001.98)">
                                    <path d="M223.176,370.594L227.379,365.025C227.379,365.025 220.024,365.445 218.447,365.55C216.871,365.655 212.353,365.865 211.828,366.601C211.513,367.126 211.828,367.652 211.828,367.757C211.933,368.072 211.828,368.597 211.618,368.177C211.513,367.967 210.987,366.496 210.462,365.445C210.042,364.499 209.516,363.344 209.411,363.239C209.201,362.923 209.516,363.028 209.831,363.239C210.042,363.554 210.462,363.764 210.777,363.869C213.824,363.974 216.871,363.974 219.919,363.764C221.179,363.764 230.951,363.133 231.687,363.133C232.107,363.133 232.527,362.923 232.002,363.764C231.687,364.184 225.908,371.749 225.487,372.38C223.386,375.112 221.39,377.844 219.603,380.786C219.498,381.206 219.603,381.521 219.708,381.942C219.813,382.257 219.708,382.992 219.603,382.782C218.658,380.996 217.607,379.21 216.346,377.529C215.926,377.003 216.451,377.318 216.766,377.529C217.082,377.634 217.292,377.529 217.712,377.318C219.708,375.217 221.6,372.905 223.176,370.594Z" style="fill-rule:nonzero;"/>
                                </g>
                                <g transform="matrix(1.00224,0,0,1,-110.286,4001.98)">
                                    <path d="M223.806,343.17C224.121,344.01 224.962,347.372 225.382,348.949C225.487,349.474 226.433,353.046 226.748,353.572C226.853,353.887 226.223,353.362 226.118,353.152C226.118,352.941 225.908,352.731 225.698,352.626C225.487,352.521 225.277,352.416 225.067,352.416C222.23,352.941 219.393,353.782 216.661,354.728C213.929,355.463 211.197,356.409 208.571,357.67C208.255,357.985 208.15,358.405 208.255,358.825C208.255,359.141 208.045,360.086 207.94,359.456C207.835,358.405 207.52,357.249 207.31,356.199C206.889,354.728 205.208,348.738 205.103,348.528C204.998,348.213 204.998,348.108 205.208,348.003C205.944,347.793 206.679,347.478 207.415,347.162C207.94,346.847 207.73,347.267 207.415,347.583C207.1,347.898 206.994,348.003 206.994,348.949C207.31,350.735 207.835,352.416 208.36,354.202C208.36,354.202 210.882,353.572 211.618,353.257C212.353,352.941 215.085,352.206 215.085,352.206C214.665,350.525 214.139,348.844 213.509,347.267C213.089,346.742 212.879,346.847 212.458,346.847C212.143,346.847 211.618,346.637 212.038,346.532C213.509,346.217 214.875,345.796 216.241,345.271C216.661,345.061 216.241,345.586 216.031,345.796C215.611,346.007 215.4,346.427 215.4,346.847C215.505,347.793 215.716,348.633 216.031,349.474C216.241,349.999 216.661,351.681 216.661,351.681C216.661,351.681 221.074,350.42 221.915,349.999C222.65,349.684 223.281,349.684 223.071,348.108C222.861,346.322 222.23,344.641 221.495,343.064C221.179,342.644 220.864,342.224 220.444,342.014C220.234,341.909 219.708,341.383 220.024,341.488C221.074,341.804 222.02,342.224 223.071,342.644C223.596,342.644 223.701,342.854 223.806,343.17Z" style="fill-rule:nonzero;"/>
                                </g>
                                <g transform="matrix(1.00224,0,0,1,-110.286,4001.98)">
                                    <path d="M245.767,272.77C245.241,273.296 241.353,277.604 240.198,278.865C239.777,279.285 238.937,280.336 238.727,280.546C238.516,280.756 238.411,280.336 238.622,280.02C238.832,279.705 238.937,279.285 238.727,278.97C236.625,276.658 234.314,274.557 231.897,272.56C229.9,270.669 227.799,268.988 225.487,267.412C225.067,267.307 224.647,267.412 224.227,267.622C224.016,267.727 223.386,268.042 223.806,267.622C224.227,267.202 224.857,266.466 225.803,265.52C226.853,264.47 231.056,260.057 231.161,259.846C231.266,259.636 231.477,259.531 231.687,259.741C232.212,260.267 232.737,260.792 233.368,261.317C233.998,261.738 233.473,261.633 233.158,261.528C232.843,261.422 232.737,261.317 232.002,261.738C230.636,262.893 229.48,264.049 228.324,265.415L233.368,270.038C233.368,270.038 236.835,266.781 236.94,266.151C236.94,265.836 236.94,265.625 236.835,265.31C236.73,265.1 236.835,264.575 237.045,264.89C237.886,265.941 238.727,266.781 239.777,267.622C240.198,267.937 239.672,267.937 239.462,267.832C239.042,267.727 238.937,267.412 238.306,267.727C237.045,268.883 235.89,270.038 234.839,271.299C234.839,271.299 238.411,274.346 239.042,274.872C239.882,275.502 240.513,275.712 241.459,274.872C242.719,273.716 243.875,272.455 244.821,271.089C245.031,270.564 245.136,270.038 245.031,269.513C245.031,269.198 245.241,268.778 245.241,269.093C245.241,269.408 246.082,271.615 246.082,272.035C246.187,272.35 246.082,272.455 245.767,272.77Z" style="fill-rule:nonzero;"/>
                                </g>
                                <g transform="matrix(1.00224,0,0,1,-110.286,4001.98)">
                                    <path d="M222.44,333.503C222.44,333.923 222.545,335.919 222.755,336.865C222.861,337.391 222.545,336.76 222.44,336.445C222.44,336.13 222.23,335.814 221.915,335.709C219.078,335.499 216.241,335.604 213.509,336.025C210.357,336.13 207.31,336.55 204.263,337.285C203.947,337.601 203.737,338.126 203.842,338.546C203.842,338.862 203.317,339.702 203.422,339.072C203.422,338.651 203.422,336.865 203.317,336.235C203.002,334.133 202.897,331.927 203.002,329.72C203.527,327.409 205.523,325.622 207.835,325.517C209.937,325.517 211.828,326.673 212.668,328.564C212.984,328.144 213.404,327.724 213.929,327.409C216.766,325.727 219.393,323.836 221.915,321.63C222.125,321.209 222.125,320.789 222.02,320.369C221.915,319.633 222.125,319.108 222.545,320.369C222.861,321.84 222.65,323.311 222.02,324.572C220.339,326.253 218.553,327.724 216.451,328.88C215.611,329.405 213.614,330.561 213.614,331.717C213.614,332.242 213.614,332.872 213.719,333.398C213.719,333.398 216.556,333.082 217.397,332.977C218.868,332.977 220.234,332.662 221.6,332.242C221.81,332.032 222.02,331.717 221.915,331.401C221.915,331.191 222.44,330.246 222.335,331.506C222.335,332.032 222.335,333.082 222.44,333.503ZM210.672,328.88C208.676,327.619 205.944,328.144 204.578,330.14C204.052,331.401 203.947,332.872 204.158,334.238L208.255,333.923C208.886,333.923 212.563,333.608 212.563,333.608C212.563,333.608 212.984,330.14 210.672,328.88Z" style="fill-rule:nonzero;"/>
                                </g>
                                <g transform="matrix(1.00224,0,0,1,-110.286,4001.98)">
                                    <path d="M294.205,269.933C291.684,266.886 290.318,263.104 290.318,259.216C290.423,256.799 291.368,254.383 292.944,252.491L293.89,251.335C296.307,248.919 297.673,245.767 297.673,242.404C297.778,240.303 297.568,238.201 296.937,236.1C296.097,242.825 292.629,249.024 287.271,253.332C284.854,255.433 280.861,258.901 280.861,263.209C281.176,268.042 283.068,272.665 286.22,276.343C285.274,273.821 284.749,271.194 284.749,268.567C284.749,266.781 284.959,264.995 285.379,263.209L285.484,262.999L285.589,263.209C287.691,266.466 290.738,268.778 294.205,269.933Z" style="fill-rule:nonzero;"/>
                                </g>
                                <g transform="matrix(1.00224,0,0,1,-110.286,4001.98)">
                                    <path d="M295.466,251.335C297.568,250.495 305.133,247.238 305.133,241.984C304.818,238.622 303.452,235.469 301.035,233.053C303.242,239.672 301.035,247.027 295.466,251.335Z" style="fill-rule:nonzero;"/>
                                </g>
                                <g transform="matrix(1.00224,0,0,1,-110.286,4001.98)">
                                    <path d="M323.836,241.248C320.999,243.875 317.637,245.977 314.064,247.238L313.959,247.027C317.111,243.455 319.003,238.937 319.633,234.314C313.644,243.665 310.071,245.346 305.868,247.133L303.977,247.973C298.934,250.39 293.155,253.752 293.155,259.111C292.734,262.999 293.89,266.886 296.412,269.933C295.992,268.357 295.781,266.781 295.676,265.205C295.676,264.154 295.781,262.999 296.097,261.948L296.202,261.528L296.307,261.948C297.358,265.31 299.564,268.252 302.611,270.249C302.506,269.408 302.506,268.567 302.506,267.727C302.506,263.734 303.452,256.799 309.546,254.172C320.369,249.444 323.101,243.35 323.836,241.248Z" style="fill-rule:nonzero;"/>
                                </g>
                                <g transform="matrix(1.00224,0,0,1,-110.286,4001.98)">
                                    <path d="M314.695,263.104C314.274,259.321 315.01,255.433 316.796,252.071C308.916,255.118 303.662,262.683 303.662,271.089L303.662,272.14C305.028,268.462 307.34,265.1 310.387,262.578L310.492,262.473L310.597,262.473L310.597,262.578C310.177,265.52 309.546,268.357 308.705,271.299C309.756,270.669 314.695,267.307 314.695,263.104Z" style="fill-rule:nonzero;"/>
                                </g>
                                <g transform="matrix(1.00224,0,0,1,-110.286,4001.98)">
                                    <path d="M325.097,262.368C325.097,260.792 324.782,259.321 324.256,257.85C323.731,259.636 322.785,261.107 321.419,262.368L321.314,262.263C322.26,260.792 322.68,259.006 322.575,257.114C322.575,255.854 322.47,254.593 322.26,253.332C322.155,252.806 322.155,252.281 322.155,251.756C322.26,249.549 322.89,247.343 324.046,245.451C320.999,247.763 318.793,251.02 317.847,254.803C317.216,257.114 316.691,259.426 316.271,261.738C316.166,262.578 315.956,263.419 315.745,264.259C314.905,267.202 313.749,270.038 312.383,272.77C314.59,271.404 316.376,269.408 317.427,266.991L317.532,266.676L317.637,266.991C317.742,267.727 317.742,268.462 317.742,269.093C317.742,271.089 317.322,273.191 316.586,275.082C317.952,273.821 325.097,267.832 325.097,262.368Z" style="fill-rule:nonzero;"/>
                                </g>
                                <g transform="matrix(1.00224,0,0,1,-110.286,4001.98)">
                                    <path d="M337.706,250.495C335.289,248.709 332.242,248.183 329.3,248.919L328.985,249.024L329.195,248.709C330.771,246.817 332.557,245.346 334.659,244.085C331.401,243.455 328.144,244.506 325.938,247.027C324.572,249.444 323.941,252.071 324.046,254.803L324.046,256.064C326.463,251.861 326.778,251.861 326.883,251.861L326.988,251.861L326.988,251.966C327.093,252.491 327.093,253.017 327.093,253.542C327.093,255.433 326.883,257.22 326.568,259.006C330.876,251.02 336.235,250.495 337.706,250.495Z" style="fill-rule:nonzero;"/>
                                </g>
                                <g transform="matrix(1.00224,0,0,1,-110.286,4001.98)">
                                    <path d="M302.086,397.598L302.506,377.634C302.821,378.054 303.137,378.474 303.347,379C303.662,379.735 303.977,380.576 304.187,381.311C304.608,381.731 304.923,382.362 305.028,382.992C305.133,383.938 305.658,387.3 305.763,388.036C305.868,388.771 305.868,389.402 306.394,389.402C309.021,389.402 310.597,384.989 309.966,383.623C309.441,382.467 308.705,381.521 307.865,380.576C307.865,380.576 306.394,375.952 306.184,375.427C305.974,374.902 304.923,374.376 304.608,374.166C304.503,374.061 303.557,373.115 302.611,372.275L302.716,366.706L301.876,366.706C299.459,366.706 297.147,365.76 295.466,364.079L296.412,397.703L302.086,397.598ZM308.811,386.67C307.655,388.351 307.445,388.351 307.024,388.351C306.604,388.351 306.604,386.565 306.919,385.619C307.234,384.674 307.865,383.728 308.705,383.728C309.441,383.833 309.966,384.989 308.811,386.67Z" style="fill-rule:nonzero;"/>
                                </g>
                                <g transform="matrix(1.00224,0,0,1,-110.286,4001.98)">
                                    <path d="M346.427,321.63C348.633,322.26 350.84,322.68 353.152,322.89C356.934,322.365 360.507,320.579 363.133,317.847C364.499,316.901 365.97,316.061 367.441,315.325C367.441,315.325 364.71,315.325 361.137,315.01C357.88,314.8 354.623,315.115 351.575,316.166C349.789,316.796 348.213,317.847 346.847,319.108C346.322,319.738 345.691,320.159 344.851,320.369C343.8,320.579 342.959,320.789 342.959,320.789C343.17,319.843 343.695,319.108 344.325,318.477C346.112,317.216 347.793,315.85 349.264,314.169C351.681,311.332 353.677,308.075 355.358,304.713C355.568,303.767 357.67,299.039 357.67,299.039C355.988,300.3 354.097,301.35 352.311,302.401C349.369,303.977 346.847,306.184 344.956,309.021C343.695,311.437 343.064,314.064 342.959,316.691C342.854,319.213 341.804,321.63 340.017,323.521C338.336,325.307 336.55,326.988 334.659,328.459C333.713,329.195 332.662,329.72 331.506,330.035C330.771,330.14 330.035,330.246 329.405,330.14C329.405,330.14 330.456,328.774 331.191,328.564C332.977,327.934 334.659,326.883 336.025,325.517C338.126,322.89 339.702,319.738 340.333,316.376C340.543,315.43 341.488,312.383 341.488,312.383C340.122,313.644 338.651,314.8 337.075,315.85C334.343,317.637 332.032,320.053 330.246,322.89C329.195,324.572 328.88,326.568 329.405,328.354C329.405,328.774 329.3,328.985 328.564,329.72C327.934,330.246 327.093,330.561 326.358,330.666C324.677,331.296 322.785,331.611 320.999,331.717C318.898,331.506 316.796,331.086 314.695,330.561C313.959,330.561 312.803,331.191 312.383,331.191C311.963,331.191 311.542,331.086 311.122,331.086L309.231,331.086C309.546,330.351 309.651,329.51 309.651,328.774C309.651,328.459 309.756,327.934 310.282,327.829C311.122,327.409 311.963,326.988 312.803,326.463C313.224,326.253 313.749,326.148 314.274,326.148C316.271,326.148 318.162,325.622 319.948,324.572C322.89,322.68 325.307,320.053 327.093,317.111C328.354,315.85 329.72,314.695 331.086,313.644C331.086,313.644 328.459,314.379 325.517,315.22C322.365,316.166 319.318,317.637 316.586,319.528C315.43,320.579 314.484,321.84 313.644,323.206C313.224,324.151 312.698,324.992 312.068,325.727C311.648,326.043 310.071,326.883 310.071,326.673C310.282,326.043 310.597,325.412 311.017,324.782C311.332,324.151 312.488,322.365 313.224,321.314C313.749,320.474 314.274,319.528 314.59,318.582C314.905,317.637 315.325,316.691 315.956,315.956C317.111,314.274 319.003,313.224 320.999,313.224C323.101,313.224 325.202,313.119 327.409,312.908C330.14,312.488 332.767,311.437 335.079,309.861C335.919,309.441 339.492,306.709 339.492,306.709C339.492,306.709 335.919,307.34 334.764,307.445C332.032,307.55 329.405,307.865 326.778,308.285C324.361,309.126 322.05,310.282 319.948,311.858C318.477,312.908 317.006,314.064 315.64,315.22C315.64,314.59 315.64,313.959 315.745,313.224C315.85,312.383 316.376,311.648 317.111,311.122C319.213,309.966 321.209,308.6 322.995,306.919C324.887,304.818 326.358,302.611 327.619,300.089C327.934,299.144 329.72,295.466 329.72,295.466C328.459,296.517 327.093,297.358 325.622,298.093C322.575,299.564 319.843,301.666 317.742,304.292C316.586,305.763 315.85,307.55 315.64,309.441C315.64,310.282 315.43,311.122 315.22,311.963C314.8,312.803 314.59,313.644 314.59,314.59C314.59,315.64 314.274,316.586 313.959,317.532C313.854,318.162 313.539,318.793 313.329,319.423C313.013,319.738 312.803,320.159 312.698,320.579C311.963,321.735 311.122,322.89 310.282,324.046C310.282,324.046 309.651,323.206 310.597,320.999C311.753,318.687 312.488,316.166 312.698,313.539C312.593,311.437 312.173,309.336 311.542,307.234C311.122,305.974 309.546,301.666 309.546,301.666C309.441,303.032 309.126,304.397 308.705,305.763C307.445,308.705 306.709,311.753 306.394,314.8C306.499,317.322 307.234,319.843 308.6,321.945C309.231,322.785 309.546,323.731 309.336,324.782C309.231,325.727 308.811,326.568 308.285,327.303C307.865,328.039 307.655,328.88 307.55,329.72C307.129,331.822 305.763,333.713 303.977,334.764C303.872,334.869 303.662,335.079 303.452,335.184L304.187,307.024C304.187,300.615 305.763,294.205 308.811,288.531C309.336,287.796 309.546,287.481 309.546,287.481C311.858,284.328 315.325,282.332 319.213,281.912L319.213,279.6L278.655,279.6L278.655,281.912C282.542,282.332 286.01,284.328 288.321,287.481C291.368,291.684 293.26,294.205 293.785,307.55L294.731,339.702C293.26,340.648 292.314,342.119 292.104,343.8C291.684,343.17 291.579,342.434 291.894,341.699C292.734,339.807 293.05,337.601 292.734,335.499C291.789,332.347 290.213,329.51 288.111,326.988C287.165,325.832 285.379,323.101 285.379,323.101C285.379,323.101 285.379,325.727 285.274,327.724C284.749,330.561 284.854,333.503 285.589,336.235C286.43,338.546 287.901,340.543 289.897,341.909C290.528,342.434 290.948,343.17 291.053,344.01C291.158,344.746 291.158,345.481 290.948,346.112C290.948,346.847 290.843,347.583 290.738,348.318C290.528,349.054 289.897,349.474 289.792,350.209C289.582,351.26 289.372,352.311 289.057,353.362C288.952,353.887 288.531,353.992 288.111,354.833C287.901,355.253 287.691,355.673 287.796,356.094C286.85,355.253 285.905,354.412 285.169,353.362C284.013,350.209 281.386,348.003 278.129,347.372C275.923,347.057 273.716,346.952 271.404,347.267C269.513,347.267 267.622,347.057 265.836,346.637C267.412,347.162 268.883,348.108 269.933,349.474C271.93,351.681 274.346,353.467 277.078,354.623C278.865,355.148 280.756,355.148 282.437,354.623C283.173,354.412 283.803,354.097 284.434,354.412C284.959,354.728 285.484,355.148 285.905,355.673C285.905,355.673 284.749,356.304 283.803,356.724C280.756,357.775 278.234,359.771 276.448,362.398C275.502,364.604 274.872,367.021 274.452,369.333C274.136,370.699 273.821,371.96 273.401,373.326C273.401,373.326 275.187,371.855 276.553,370.804C278.76,369.438 280.756,367.757 282.437,365.76C284.013,363.239 284.959,360.402 285.169,357.354C285.169,356.724 285.589,356.304 286.22,356.199C286.85,356.409 287.271,356.934 287.271,357.565C287.271,358.3 287.481,359.036 287.901,359.666C288.216,360.086 288.952,360.717 289.582,361.662C290.108,362.818 290.633,364.079 291.053,365.34C291.473,366.181 291.684,366.076 292.314,367.231C292.944,368.387 292.839,369.018 293.365,369.858C293.89,370.699 294.1,370.594 294.1,370.594L293.785,365.13C293.68,365.025 293.47,364.92 293.365,364.815C293.155,364.499 292.944,364.184 292.839,363.869C292.839,363.869 293.785,363.239 294.416,362.923C294.836,362.713 295.361,362.713 295.781,363.028C297.673,364.499 299.879,365.445 302.296,365.655C306.079,364.92 309.756,363.554 313.224,361.557C314.59,360.927 316.061,360.507 317.532,360.086C317.532,360.086 314.484,359.771 312.803,359.456C310.282,358.931 307.76,358.51 305.238,358.195C304.503,358.195 303.872,358.3 303.137,358.405L303.242,356.724C303.242,356.724 301.876,357.88 301.455,358.195C300.405,358.931 299.249,359.456 298.093,359.876C297.252,360.191 296.517,360.402 295.571,360.612C295.571,360.612 295.361,360.402 295.256,361.137C295.151,361.873 295.046,361.768 294.1,361.978C293.575,362.083 292.944,362.293 292.419,362.503C292.419,362.503 293.155,360.612 293.26,360.402C293.365,360.086 293.47,359.771 294.626,359.561C297.358,359.036 299.879,357.67 301.981,355.778C304.292,353.572 306.079,351.05 307.234,348.108C308.18,346.427 309.441,344.956 310.912,343.59C310.912,343.59 308.6,344.535 304.082,346.112C303.872,346.217 303.662,346.217 303.452,346.322L303.557,340.438L303.557,340.017L303.242,340.122C302.611,340.438 300.615,340.963 299.879,341.383C299.144,341.699 298.513,342.539 297.883,342.854C296.832,343.275 295.781,343.905 294.941,344.641L294.941,345.586L295.151,351.891C293.995,353.362 293.26,355.148 293.155,357.039C292.944,358.195 292.839,358.825 292.629,359.351C292.419,360.086 292.104,360.717 291.894,361.452C291.368,360.507 290.843,359.666 290.108,358.825C289.477,358.195 289.372,357.249 289.687,356.409C289.897,355.463 290.213,354.623 290.633,353.782C291.053,352.626 291.684,350.315 292.104,349.579C292.524,348.844 292.314,350.209 293.05,346.007C293.47,343.38 295.361,341.278 297.778,340.543C298.408,340.227 299.039,339.387 299.774,339.072C300.51,338.756 302.506,338.126 303.137,337.811C304.608,337.285 305.868,336.34 307.024,335.184C307.55,334.343 308.39,333.608 309.231,333.082C310.282,332.662 311.542,332.557 312.698,332.557C314.379,332.452 314.8,333.818 315.115,334.238C315.43,334.659 315.535,335.289 315.535,335.814C315.43,338.441 316.481,340.963 318.582,342.644C321.314,344.641 324.466,345.901 327.829,346.322C329.405,346.742 333.188,348.318 333.188,348.318C333.188,348.318 332.557,348.108 329.93,344.01C328.249,341.068 325.938,338.546 323.206,336.655C321.524,335.919 319.843,335.289 318.057,334.974C317.427,334.869 316.901,334.659 316.376,334.238C315.85,333.713 315.43,333.188 315.115,332.557L315.745,332.557C317.322,333.293 319.108,333.608 320.894,333.503C322.995,333.503 324.992,332.977 326.883,332.032C327.514,331.822 328.249,331.822 328.88,332.242C329.51,332.662 330.351,333.188 332.032,334.238C334.343,335.814 336.97,336.655 339.702,336.865C342.959,336.655 346.217,335.919 349.369,334.764C350.63,334.238 351.996,333.818 353.362,333.503C353.362,333.503 350.84,333.082 349.369,332.767C346.322,331.717 343.17,331.086 339.912,330.666C337.811,330.666 335.709,331.296 333.923,332.452C333.398,332.977 332.557,333.188 331.822,332.872C331.086,332.767 330.456,332.242 330.246,331.506C332.347,331.401 334.343,330.666 336.025,329.405C337.391,328.249 338.651,326.988 339.807,325.622C340.438,324.992 340.963,324.151 342.434,322.89C343.485,321.419 345.061,321.104 346.427,321.63ZM353.887,316.271C357.249,315.64 360.612,315.43 363.974,315.85C363.133,316.061 357.985,318.267 354.412,319.213C351.891,319.843 349.264,320.264 346.637,320.474L346.637,320.369C348.633,318.477 351.155,317.111 353.887,316.271ZM346.112,309.021C348.318,305.974 351.26,303.662 354.728,302.296C354.728,302.296 350.315,308.18 348.949,310.071C347.583,311.963 343.905,317.216 343.905,317.216C343.905,314.274 344.641,311.437 346.112,309.021ZM331.822,322.155C333.713,319.423 336.34,317.111 339.282,315.535C339.282,315.535 336.235,320.684 334.554,322.995C332.872,325.307 330.351,328.249 330.351,328.249C330.351,328.249 329.3,326.253 331.822,322.155ZM318.267,319.528C321.209,317.952 324.256,316.586 327.409,315.43C327.409,315.43 322.155,320.053 319.528,321.945C317.637,323.206 315.745,324.361 313.749,325.307C314.59,322.995 316.271,320.999 318.267,319.528ZM326.883,309.021C329.93,308.39 332.977,308.075 336.13,307.97C336.13,307.97 330.035,310.071 327.619,310.912C325.412,311.542 323.101,312.068 320.789,312.383C322.575,311.017 324.677,309.861 326.883,309.021ZM318.687,304.608C321.209,301.876 324.256,299.669 327.619,297.988C327.619,297.988 323.731,301.876 320.999,305.133C318.267,308.39 316.481,310.597 316.481,310.597L316.481,310.702C316.796,308.495 317.532,306.394 318.687,304.608ZM309.441,321.104C308.18,319.003 307.445,316.691 307.445,314.169C307.655,311.017 308.495,307.97 309.966,305.238C309.966,305.238 309.861,310.282 309.966,313.119C309.966,315.85 309.756,318.477 309.441,321.104ZM276.238,350.84C274.136,349.894 272.035,348.844 270.144,347.583C273.086,347.162 276.133,347.267 279.075,348.003C281.386,348.949 283.068,350.84 283.803,353.152C283.908,353.152 278.76,351.681 276.238,350.84ZM275.187,370.173C275.502,367.126 276.448,364.079 277.814,361.347C279.18,359.456 281.071,358.09 283.383,357.565L275.187,370.173ZM304.292,358.615C307.234,358.72 310.177,359.141 313.119,359.771C309.756,360.612 306.289,361.242 302.821,361.662C300.615,361.768 298.513,361.768 296.307,361.557C296.307,361.557 297.988,359.246 304.292,358.615ZM297.568,350.104C300.615,348.003 303.872,346.427 307.34,345.481C307.34,345.481 301.455,350.525 299.039,352.626C297.147,354.412 295.361,356.304 293.68,358.3C293.785,355.043 295.151,352.101 297.568,350.104ZM291.053,341.278C289.897,339.282 288.952,337.075 288.321,334.869C287.586,332.242 286.535,325.938 286.535,325.938C288.321,328.459 290.002,331.191 291.368,333.923C292.104,336.34 291.999,338.862 291.053,341.278ZM316.481,334.869C318.687,335.394 320.894,336.13 322.89,337.18C325.727,339.387 328.144,342.224 329.72,345.481C327.198,344.115 324.677,342.539 322.365,340.858C320.264,339.177 318.267,337.18 316.586,334.974L316.586,334.869L316.481,334.869ZM339.387,331.191C342.644,331.401 345.796,332.032 348.844,333.082C348.844,333.082 341.699,334.028 339.387,334.028C337.285,333.923 335.289,333.713 333.188,333.398C335.079,332.242 337.18,331.401 339.387,331.191Z" style="fill-rule:nonzero;"/>
                                </g>
                                <g transform="matrix(1.00224,0,0,1,-110.286,4001.98)">
                                    <path d="M328.354,302.716C327.409,303.242 326.883,304.292 326.988,305.343C326.883,306.079 327.409,306.814 328.144,306.919C328.354,306.919 328.669,306.919 328.88,306.814C329.93,306.499 330.666,305.448 330.456,304.397C330.456,303.452 329.825,302.611 328.88,302.611C328.669,302.611 328.459,302.716 328.354,302.716Z" style="fill-rule:nonzero;"/>
                                </g>
                                <g transform="matrix(1.00224,0,0,1,-110.286,4001.98)">
                                    <path d="M353.782,310.387C352.836,310.912 352.311,311.963 352.416,313.013C352.311,313.749 352.836,314.484 353.572,314.59C353.782,314.59 354.097,314.59 354.307,314.484C355.358,314.169 356.094,313.119 355.883,312.068C355.883,311.122 355.253,310.387 354.307,310.282C354.097,310.387 353.887,310.387 353.782,310.387Z" style="fill-rule:nonzero;"/>
                                </g>
                                <g transform="matrix(1.00224,0,0,1,-110.286,4001.98)">
                                    <path d="M310.702,334.554C309.756,335.079 309.231,336.13 309.336,337.18C309.231,337.916 309.756,338.651 310.492,338.756C310.702,338.756 311.017,338.756 311.227,338.651C312.278,338.336 313.013,337.285 312.803,336.235C312.803,335.289 312.173,334.448 311.227,334.448C311.017,334.554 310.807,334.554 310.702,334.554Z" style="fill-rule:nonzero;"/>
                                </g>
                                <g transform="matrix(1.00224,0,0,1,-110.286,4001.98)">
                                    <path d="M340.753,326.463C340.438,327.093 340.648,327.934 341.383,328.354C341.593,328.459 341.909,328.564 342.119,328.459C343.17,328.459 344.22,327.724 344.43,326.673C344.746,325.832 344.325,324.782 343.485,324.466C343.38,324.361 343.17,324.361 342.959,324.361C341.909,324.572 340.963,325.412 340.753,326.463Z" style="fill-rule:nonzero;"/>
                                </g>
                                <g transform="matrix(1.00224,0,0,1,-110.286,4001.98)">
                                    <path d="M327.829,334.554C326.883,335.079 326.358,336.13 326.463,337.18C326.358,337.916 326.883,338.651 327.619,338.756C327.829,338.756 328.144,338.756 328.354,338.651C329.405,338.336 330.14,337.285 329.93,336.235C329.93,335.289 329.3,334.448 328.354,334.448C328.144,334.554 328.039,334.554 327.829,334.554Z" style="fill-rule:nonzero;"/>
                                </g>
                                <g transform="matrix(1.00224,0,0,1,-110.286,4001.98)">
                                    <path d="M307.34,352.101C306.394,352.626 305.868,353.677 305.974,354.728C305.868,355.463 306.394,356.199 307.129,356.304C307.34,356.304 307.655,356.304 307.865,356.199C308.916,355.883 309.651,354.833 309.441,353.782C309.441,352.836 308.811,352.101 307.865,351.996C307.655,352.101 307.55,352.101 307.34,352.101Z" style="fill-rule:nonzero;"/>
                                </g>
                                <g transform="matrix(1.00224,0,0,1,-110.286,4001.98)">
                                    <path d="M275.397,359.561C276.448,359.246 277.183,358.195 276.973,357.144C276.973,356.199 276.343,355.358 275.397,355.358L274.872,355.358C273.926,355.883 273.401,356.934 273.506,357.985C273.401,358.72 273.926,359.456 274.662,359.561C274.977,359.666 275.187,359.666 275.397,359.561Z" style="fill-rule:nonzero;"/>
                                </g>
                                <g transform="matrix(1.00224,0,0,1,-110.286,4001.98)">
                                    <path d="M285.064,232.212C286.85,234.629 287.796,237.466 287.901,240.513C287.901,241.669 287.796,243.455 287.796,243.455C287.586,245.241 287.271,246.922 286.85,248.604C288.426,246.397 289.582,243.98 290.423,241.353L290.528,241.038L290.633,241.248C291.158,242.299 291.579,243.56 291.684,244.716C292.314,243.14 292.734,241.564 292.734,239.882C292.419,235.89 289.267,232.632 285.064,232.212Z" style="fill-rule:nonzero;"/>
                                </g>
                                <g transform="matrix(1.00224,0,0,1,-110.286,4001.98)">
                                    <path d="M286.01,244.926C285.905,243.665 285.799,242.299 285.589,241.038C283.803,244.611 281.281,247.763 278.024,250.285C275.082,252.386 273.296,255.643 272.981,259.216C273.611,264.47 276.238,269.303 280.441,272.56C279.18,269.093 278.444,265.31 278.444,261.633C278.549,259.636 279.495,257.85 281.071,256.694L281.386,256.379C282.542,255.223 283.593,254.067 284.539,252.701C285.064,251.966 285.379,251.125 285.694,250.285C285.799,249.864 285.799,249.444 285.905,249.024C286.115,247.658 286.115,246.292 286.01,244.926Z" style="fill-rule:nonzero;"/>
                                </g>
                                <g transform="matrix(1.00224,0,0,1,-110.286,4001.98)">
                                    <path d="M254.383,305.763C253.437,305.763 252.701,306.499 252.701,307.445C252.701,307.865 252.912,308.285 253.227,308.6C253.017,308.495 252.806,308.495 252.596,308.495C251.441,308.495 250.39,309.441 250.39,310.702C250.39,311.858 251.335,312.908 252.596,312.908C252.806,312.908 253.017,312.908 253.122,312.803C252.596,314.379 251.125,315.43 249.549,315.43C246.397,315.43 245.031,311.963 244.926,311.122C245.241,312.278 246.502,312.908 247.553,312.593C248.709,312.278 249.339,311.017 249.024,309.966C248.709,309.021 247.868,308.39 246.922,308.39C246.712,308.39 246.502,308.39 246.292,308.495C247.133,307.655 247.238,306.394 246.502,305.448C245.661,304.608 244.401,304.503 243.455,305.238C243.035,305.658 242.719,306.184 242.719,306.814C242.719,307.445 243.035,308.075 243.455,308.495C243.245,308.39 243.035,308.39 242.719,308.39C241.564,308.39 240.513,309.336 240.513,310.492C240.513,311.648 241.459,312.698 242.614,312.698C243.56,312.698 244.401,312.068 244.716,311.122C244.611,312.068 242.825,315.43 240.093,315.43C238.411,315.535 236.94,314.379 236.415,312.803C236.625,312.803 236.835,312.908 236.94,312.908C238.096,312.908 239.147,311.963 239.147,310.702C239.147,309.546 238.201,308.495 236.94,308.495C236.73,308.495 236.52,308.495 236.31,308.6C236.625,308.285 236.835,307.865 236.835,307.445C236.835,306.499 236.1,305.658 235.154,305.658C234.734,305.658 234.419,305.658 234.103,305.868C234.524,307.655 235.049,311.227 235.154,311.753L236.625,321.524L252.806,321.524L252.806,321.209L254.277,311.753C254.593,309.546 255.013,307.234 255.328,305.868C255.118,305.868 254.698,305.763 254.383,305.763Z" style="fill-rule:nonzero;"/>
                                </g>
                                <g transform="matrix(1.00224,0,0,1,-110.286,4001.98)">
                                    <path d="M284.854,305.763C283.908,305.763 283.173,306.499 283.173,307.445C283.173,307.865 283.383,308.285 283.698,308.6C283.488,308.495 283.278,308.495 283.068,308.495C281.912,308.495 280.861,309.441 280.861,310.702C280.861,311.858 281.807,312.908 283.068,312.908C283.278,312.908 283.488,312.908 283.593,312.803C283.068,314.379 281.597,315.43 280.02,315.43C276.868,315.43 275.502,311.963 275.397,311.122C275.712,312.278 276.973,312.908 278.024,312.593C279.18,312.278 279.81,311.017 279.495,309.966C279.18,309.021 278.339,308.39 277.394,308.39C277.183,308.39 276.973,308.39 276.763,308.495C277.604,307.655 277.709,306.394 276.973,305.448C276.133,304.608 274.872,304.503 273.926,305.238C273.506,305.658 273.191,306.184 273.191,306.814C273.191,307.445 273.506,308.075 273.926,308.495C273.716,308.39 273.506,308.39 273.191,308.39C272.035,308.39 270.984,309.336 270.984,310.492C270.984,311.648 271.93,312.698 273.086,312.698C274.031,312.698 274.872,312.068 275.187,311.122C275.082,312.068 273.296,315.43 270.564,315.43C268.883,315.535 267.412,314.379 266.886,312.803C267.096,312.803 267.307,312.908 267.412,312.908C268.567,312.908 269.618,311.963 269.618,310.702C269.618,309.546 268.673,308.495 267.412,308.495C267.202,308.495 266.991,308.495 266.781,308.6C267.096,308.285 267.307,307.865 267.307,307.445C267.307,306.499 266.571,305.658 265.625,305.658C265.205,305.658 264.89,305.658 264.575,305.868C264.995,307.655 265.52,311.227 265.625,311.753L267.096,321.524L283.278,321.524L283.278,321.209L284.749,311.753C285.064,309.546 285.484,307.024 285.799,305.868C285.694,305.868 285.274,305.763 284.854,305.763Z" style="fill-rule:nonzero;"/>
                                </g>
                                <g transform="matrix(1.00224,0,0,1,-110.286,4001.98)">
                                    <path d="M270.879,325.307C269.828,325.307 268.988,326.148 268.988,327.198C268.988,327.724 269.198,328.144 269.513,328.459C268.252,328.039 266.886,328.774 266.571,330.035C266.256,331.296 266.886,332.662 268.147,332.977C268.357,333.082 268.567,333.082 268.883,333.082C269.093,333.082 269.303,333.082 269.513,332.977C268.988,334.764 267.307,335.919 265.52,335.919C261.948,335.919 260.582,332.137 260.477,331.191C260.897,332.452 262.158,333.188 263.419,332.767C264.68,332.347 265.415,331.086 264.995,329.825C264.68,328.774 263.734,328.144 262.683,328.144C262.473,328.144 262.158,328.144 261.948,328.249C262.893,327.409 262.999,325.938 262.158,324.887C261.317,323.941 259.846,323.836 258.796,324.677C258.27,325.097 257.955,325.727 257.955,326.463C257.955,327.198 258.27,327.829 258.796,328.249C258.586,328.144 258.27,328.144 258.06,328.144C256.799,328.144 255.643,329.195 255.643,330.456C255.643,331.717 256.694,332.872 257.955,332.872C259.006,332.872 259.951,332.137 260.267,331.191C260.162,332.242 258.165,335.919 255.118,335.919C253.227,336.025 251.651,334.764 251.125,332.977C251.335,332.977 251.546,333.082 251.756,333.082C253.122,333.082 254.172,332.137 254.277,330.771C254.277,329.405 253.332,328.354 251.966,328.249L251.756,328.249C251.546,328.249 251.335,328.249 251.125,328.354C251.441,328.039 251.651,327.514 251.651,327.093C251.651,326.043 250.81,325.202 249.759,325.202C249.339,325.202 248.919,325.202 248.604,325.412C249.129,327.409 249.654,331.296 249.759,331.822L251.441,342.644L269.303,342.644L269.303,342.329L270.879,331.822C271.194,329.405 271.72,326.673 272.035,325.412C271.615,325.307 271.194,325.307 270.879,325.307Z" style="fill-rule:nonzero;"/>
                                </g>
                                <g transform="matrix(1.00224,0,0,1,93,4234.2)">
                                    <path d="M255.433,111.273L250.075,111.273C249.969,118.313 249.969,125.353 249.969,137.226C249.969,143.53 250.39,147.103 252.491,149.624C254.488,152.146 258.165,153.197 263.419,153.197C268.462,153.197 272.35,151.936 274.662,148.889C276.763,146.157 276.868,141.849 276.868,134.914L276.973,111.168L270.669,111.168L270.669,106.649L288.111,106.649L288.111,111.168L282.647,111.168L282.542,138.592C282.542,144.371 281.912,148.574 278.549,152.672C275.607,156.244 270.354,158.135 263.104,158.135C254.277,158.135 249.444,155.929 246.502,151.831C244.085,148.574 243.665,145.001 243.665,136.595C243.665,128.4 243.77,118.943 243.77,111.273L237.886,111.273L237.886,106.755L255.328,106.755L255.433,111.273Z" style="fill-rule:nonzero;"/>
                                </g>
                                <g transform="matrix(1.00224,0,0,1,93,4234.2)">
                                    <path d="M317.427,152.777L322.155,152.777C322.155,146.998 322.47,140.903 322.47,134.914C322.47,131.342 322.365,124.092 314.064,124.092C308.811,124.092 303.032,127.244 303.032,137.436L302.926,152.777L308.39,152.777L308.39,157.295L292.209,157.295L292.209,152.777L296.937,152.777L297.252,124.617L291.053,124.617L291.053,120.099L303.032,120.099C303.032,121.57 302.926,123.566 302.821,124.617L302.296,128.4L302.401,128.4C303.977,122.726 309.966,119.258 315.64,119.258C325.938,119.258 328.459,126.193 328.459,133.338C328.459,139.748 328.144,147.103 328.144,152.882L333.608,152.882L333.608,157.4L317.427,157.4L317.427,152.777Z" style="fill-rule:nonzero;"/>
                                </g>
                                <g transform="matrix(1.00224,0,0,1,93,4234.2)">
                                    <path d="M344.325,124.617L337.496,124.617L337.496,120.099L350.209,120.099L349.894,152.882L355.778,152.882L355.778,157.4L338.021,157.4L338.021,152.882L343.905,152.882L344.325,124.617ZM346.637,101.186C349.054,101.186 351.155,103.182 351.155,105.704C351.155,108.12 349.159,110.222 346.637,110.222C344.115,110.222 342.119,108.226 342.119,105.704C342.119,103.182 344.115,101.186 346.637,101.186Z" style="fill-rule:nonzero;"/>
                                </g>
                                <g transform="matrix(1.00224,0,0,1,93,4234.2)">
                                    <path d="M356.094,119.994L371.434,119.994L371.434,124.512L366.916,124.512L375.532,148.469C375.847,149.519 376.057,150.57 376.373,151.621L376.478,151.621C376.688,150.57 376.898,149.414 377.318,148.469L386.145,124.512L381.311,124.512L381.311,119.994L396.232,119.994L396.232,124.512L392.134,124.512L379.315,157.295L373.431,157.295L360.507,124.512L356.304,124.512L356.094,119.994Z" style="fill-rule:nonzero;"/>
                                </g>
                                <g transform="matrix(1.00224,0,0,1,93,4234.2)">
                                    <path d="M404.637,139.222C404.848,146.893 408.21,153.302 418.822,153.302C422.92,153.302 426.913,152.041 430.065,150.465L429.855,155.614C427.123,156.98 421.344,158.24 417.561,158.24C405.793,158.24 398.438,151.831 398.438,138.802C398.438,127.769 404.322,119.258 415.67,119.258C430.38,119.258 431.746,132.603 431.746,139.327L404.637,139.222ZM425.547,134.599C425.547,128.715 421.869,123.671 415.67,123.671C409.366,123.671 404.953,128.4 404.637,134.599L425.547,134.599Z" style="fill-rule:nonzero;"/>
                                </g>
                                <g transform="matrix(1.00224,0,0,1,93,4234.2)">
                                    <path d="M443.199,124.617L436.895,124.617L436.895,120.099L449.189,120.099L449.189,122.095C449.189,124.302 448.768,128.715 448.348,131.657L448.558,131.657C450.029,126.193 451.92,119.363 461.167,119.363C461.692,119.363 464.634,119.679 464.95,119.994L464.424,125.353C463.373,125.037 461.797,124.722 460.326,124.722C452.656,124.722 449.294,132.287 449.083,138.802L448.768,152.777L455.073,152.777L455.073,157.295L437.63,157.295L437.63,152.777L442.884,152.777L443.199,124.617Z" style="fill-rule:nonzero;"/>
                                </g>
                                <g transform="matrix(1.00224,0,0,1,93,4234.2)">
                                    <path d="M494.79,130.396L489.432,130.396L489.116,125.142C487.75,123.987 484.283,123.776 482.497,123.776C478.714,123.776 473.881,125.037 473.881,129.45C473.881,133.548 477.453,134.704 483.022,135.65C492.479,137.226 496.472,140.168 496.472,146.262C496.472,152.882 491.953,158.24 481.236,158.24C477.138,158.24 470.729,157.19 468.417,156.034L468.102,146.472L473.461,146.472L473.776,152.041C475.982,153.092 479.765,153.722 482.182,153.722C486.069,153.722 490.798,152.041 490.798,147.523C490.798,143.845 486.91,142.479 482.917,141.639C472.935,139.432 467.997,137.751 467.997,130.396C467.997,124.407 471.989,119.153 482.707,119.153C485.859,119.153 491.638,120.204 494.475,121.36L494.79,130.396Z" style="fill-rule:nonzero;"/>
                                </g>
                                <g transform="matrix(1.00224,0,0,1,93,4234.2)">
                                    <path d="M508.555,124.617L501.725,124.617L501.725,120.099L514.439,120.099L514.124,152.882L520.008,152.882L520.008,157.4L502.251,157.4L502.251,152.882L508.135,152.882L508.555,124.617ZM510.762,101.186C513.178,101.186 515.28,103.182 515.28,105.704C515.28,108.12 513.283,110.222 510.762,110.222C508.24,110.222 506.243,108.226 506.243,105.704C506.243,103.182 508.24,101.186 510.762,101.186Z" style="fill-rule:nonzero;"/>
                                </g>
                                <g transform="matrix(1.00224,0,0,1,93,4234.2)">
                                    <path d="M522.74,119.994L528.729,119.994L529.044,110.852L534.928,110.537L534.613,119.994L546.381,119.994L546.381,124.512L534.613,124.512C534.508,130.711 534.298,137.016 534.298,143.215C534.298,148.574 534.298,153.197 539.972,153.197C543.019,153.197 545.751,152.356 547.327,151.726L547.117,156.454C545.226,157.4 541.758,158.135 538.711,158.135C528.309,158.135 528.309,150.675 528.309,145.947C528.309,141.429 528.519,129.976 528.624,124.512L522.74,124.512L522.74,119.994Z" style="fill-rule:nonzero;"/>
                                </g>
                                <g transform="matrix(1.00224,0,0,1,93,4234.2)">
                                    <path d="M549.429,119.994L565.19,119.994L565.19,124.512L560.461,124.512L569.392,147.733C569.813,148.994 570.233,150.78 570.443,151.621L570.548,151.621C570.653,150.78 571.074,148.994 571.599,147.733L579.9,124.512L574.646,124.512L574.646,119.994L589.461,119.994L589.461,124.512L585.259,124.512L573.805,155.929C568.552,170.639 564.244,176.208 554.892,176.208C553.106,176.208 551.53,175.893 550.479,175.578L550.479,170.639C551.32,170.954 553.211,171.27 554.682,171.27C558.99,171.27 563.403,168.643 566.135,161.918L567.396,158.871L553.737,124.407L549.323,124.407L549.429,119.994Z" style="fill-rule:nonzero;"/>
                                </g>
                                <g transform="matrix(1.00224,0,0,1,93,4234.2)">
                                    <path d="M239.567,81.432L245.556,81.432L245.556,88.367C247.868,89.733 252.281,90.258 255.538,90.258C262.788,90.258 267.622,86.896 267.622,80.801C267.622,67.247 239.777,75.338 239.777,57.055C239.777,50.856 243.455,42.66 258.586,42.66C262.263,42.66 268.988,43.605 272.245,45.077L272.245,55.269L266.571,55.269L266.571,48.964C264.68,48.124 260.477,47.598 258.06,47.598C252.596,47.598 246.502,49.7 246.502,56.424C246.502,69.348 274.346,61.258 274.346,79.961C274.346,91.099 264.785,95.196 255.013,95.196C246.712,95.196 242.614,93.2 239.777,92.675L239.567,81.432Z" style="fill-rule:nonzero;"/>
                                </g>
                                <g transform="matrix(1.00224,0,0,1,93,4234.2)">
                                    <path d="M278.76,56.845L284.749,56.845L285.064,47.703L291.053,47.388L290.738,56.845L302.506,56.845L302.506,61.363L290.738,61.363C290.633,67.562 290.423,73.867 290.423,80.171C290.423,85.53 290.423,90.153 296.202,90.153C299.249,90.153 301.981,89.312 303.557,88.682L303.347,93.41C301.455,94.356 297.988,95.196 294.941,95.196C284.539,95.196 284.539,87.736 284.539,82.903C284.539,78.385 284.749,66.827 284.854,61.468L278.865,61.468L278.76,56.845Z" style="fill-rule:nonzero;"/>
                                </g>
                                <g transform="matrix(1.00224,0,0,1,93,4234.2)">
                                    <path d="M324.887,56.004C336.235,56.004 343.064,63.885 343.064,74.602C343.064,86.475 336.34,95.196 324.887,95.196C313.434,95.196 306.709,87.316 306.709,76.599C306.709,64.725 313.434,56.004 324.887,56.004ZM324.887,90.258C332.872,90.258 336.76,83.744 336.76,75.653C336.76,67.562 332.872,61.048 324.887,61.048C316.901,61.048 313.013,67.562 313.013,75.653C312.908,83.744 316.901,90.258 324.887,90.258Z" style="fill-rule:nonzero;"/>
                                </g>
                                <g transform="matrix(1.00224,0,0,1,93,4234.2)">
                                    <path d="M379.21,93.41C376.268,94.251 372.485,95.196 368.387,95.196C353.572,95.196 348.844,85.425 348.844,75.653C348.844,61.363 359.246,56.109 367.547,56.109C371.644,56.109 375.847,56.635 379.63,58.001L379.63,67.772L374.271,67.772L374.271,61.888C372.695,61.258 369.648,61.048 368.072,61.048C357.249,61.048 355.043,69.664 355.043,75.653C355.043,77.649 355.358,90.258 369.228,90.258C372.905,90.258 375.952,89.207 379.42,88.156L379.21,93.41Z" style="fill-rule:nonzero;"/>
                                </g>
                                <g transform="matrix(1.00224,0,0,1,93,4234.2)">
                                    <path d="M390.032,43.08L382.782,43.08L382.782,38.562L396.021,38.562L395.916,73.341L410.206,61.573L410.206,61.468L404.953,61.468L404.953,56.95L421.239,56.95L421.239,61.468L417.351,61.468L401.8,74.077L418.717,89.733L422.815,89.733L422.815,94.356L406.529,94.356L406.529,89.733L411.047,89.733L411.047,89.628L395.916,75.233L395.811,89.838L400.75,89.838L400.75,94.461L384.463,94.461L384.463,89.838L389.822,89.838L390.032,43.08Z" style="fill-rule:nonzero;"/>
                                </g>
                                <g transform="matrix(1.00224,0,0,1,93,4234.2)">
                                    <path d="M432.377,43.08L425.127,43.08L425.127,38.562L438.366,38.562L438.261,58.211C438.261,59.892 437.841,63.569 437.525,65.146L437.63,65.146C439.207,59.472 445.196,56.004 450.87,56.004C461.167,56.004 463.689,62.939 463.689,70.084C463.689,76.493 463.373,83.954 463.373,89.733L468.837,89.733L468.837,94.356L452.551,94.356L452.551,89.733L457.384,89.733C457.384,83.954 457.699,77.859 457.699,71.765C457.699,68.193 457.594,60.838 449.189,60.838C443.935,60.838 438.051,63.99 438.051,74.182L437.841,89.628L443.304,89.628L443.304,94.251L426.493,94.251L426.493,89.628L431.851,89.628L432.377,43.08Z" style="fill-rule:nonzero;"/>
                                </g>
                                <g transform="matrix(1.00224,0,0,1,93,4234.2)">
                                    <path d="M491.113,56.004C502.461,56.004 509.291,63.885 509.291,74.602C509.291,86.475 502.566,95.196 491.113,95.196C479.765,95.196 472.935,87.316 472.935,76.599C472.935,64.725 479.765,56.004 491.113,56.004ZM491.113,90.258C499.098,90.258 502.986,83.744 502.986,75.653C502.986,67.562 499.098,61.048 491.113,61.048C483.127,61.048 479.24,67.562 479.24,75.653C479.24,83.744 483.127,90.258 491.113,90.258Z" style="fill-rule:nonzero;"/>
                                </g>
                                <g transform="matrix(1.00224,0,0,1,93,4234.2)">
                                    <path d="M518.957,43.08L511.707,43.08L511.707,38.562L524.946,38.562L524.631,89.733L530.62,89.733L530.62,94.356L513.388,94.356L513.388,89.733L518.747,89.733L518.957,43.08Z" style="fill-rule:nonzero;"/>
                                </g>
                                <g transform="matrix(1.00224,0,0,1,93,4234.2)">
                                    <path d="M535.769,89.733L540.602,89.733L540.918,61.468L534.823,61.468L534.823,56.95L546.802,56.95C546.802,58.421 546.697,60.417 546.592,61.468L546.066,65.251L546.171,65.251C547.747,59.577 553.737,56.109 559.411,56.109C566.24,56.109 569.813,59.997 570.758,64.83L570.863,64.83C571.599,63.254 573.911,56.109 583.577,56.109C593.875,56.109 596.396,63.044 596.396,70.189C596.396,76.599 596.081,84.059 596.081,89.838L601.545,89.838L601.545,94.461L585.259,94.461L585.259,89.838L590.092,89.838C590.197,83.744 590.407,77.754 590.407,71.66C590.407,66.196 589.251,60.943 582.316,60.943C577.483,60.943 571.599,64.095 571.599,74.287L571.494,89.733L576.853,89.733L576.853,94.356L560.566,94.356L560.566,89.733L565.295,89.733C565.4,83.638 565.61,77.649 565.61,71.555C565.61,66.091 564.454,60.838 557.519,60.838C552.686,60.838 546.802,63.99 546.802,74.182L546.697,89.628L552.16,89.628L552.16,94.251L535.874,94.251L535.769,89.733Z" style="fill-rule:nonzero;"/>
                                </g>
                            </g>
                        </g>
                    </g>
                </g>
            </g>
        </g>
    </g>
</svg>
